<svg width="16" height="12" viewBox="0 0 16 12" fill="none" xmlns="http://www.w3.org/2000/svg">
<path d="M10.5513 2.08714V0.461338C10.5513 0.206548 10.3448 0 10.09 0H5.90912C5.65433 0 5.44778 0.206548 5.44778 0.461338V2.08714H4.13965V11.6215H11.8594V2.08714H10.5513ZM9.62864 2.08347H6.37045V0.922676H9.62861V2.08347H9.62864Z" fill="#26B0EE"/>
<path d="M2.23518 2.08594C1.37049 2.08594 0.666992 2.7894 0.666992 3.6541V10.0521C0.666992 10.9168 1.37049 11.6203 2.23518 11.6203H3.21816V2.08594H2.23518Z" fill="#26B0EE"/>
<path d="M13.7672 2.08594H12.7842V11.6203H13.7672C14.6319 11.6203 15.3353 10.9168 15.3353 10.0521V3.6541C15.3353 2.7894 14.6318 2.08594 13.7672 2.08594Z" fill="#26B0EE"/>
</svg>
