<svg width="164" height="32" viewBox="0 0 164 32" fill="none" xmlns="http://www.w3.org/2000/svg">
<path d="M34.6723 23.9133C33.8376 23.4605 33.1478 22.7756 32.6841 21.9456C32.1914 21.0401 31.9422 20.0243 31.9653 18.9911C31.948 17.9637 32.1914 16.9537 32.6725 16.0482C33.1305 15.2066 33.8203 14.51 34.6608 14.0457C35.5534 13.5581 36.5562 13.3085 37.5764 13.3259C38.3184 13.3201 39.0546 13.4304 39.7617 13.6568C40.382 13.8541 40.9558 14.1792 41.4427 14.6087V7.93359H44.7758V24.279H41.5529V23.1297C41.0428 23.6231 40.4399 24.0061 39.7733 24.2557C39.0661 24.5053 38.3242 24.6214 37.5764 24.6098C36.5678 24.6272 35.565 24.3892 34.6723 23.9133ZM40.2834 21.4638C40.8167 21.1039 41.2225 20.5873 41.4427 19.9837V17.9695C41.2399 17.3658 40.8399 16.8492 40.3066 16.501C39.7559 16.1237 39.1009 15.9263 38.4401 15.9379C37.6228 15.9089 36.8287 16.2108 36.2432 16.7796C35.6636 17.3658 35.3563 18.1669 35.3911 18.9911C35.3563 19.8095 35.6636 20.6105 36.2432 21.191C36.8345 21.754 37.6286 22.05 38.4401 22.021C39.0951 22.0326 39.7385 21.8411 40.2834 21.4638Z" fill="#1A1818"/>
<path d="M47.6275 11.5144C47.2739 11.1835 47.0827 10.7134 47.0942 10.2316C47.0827 9.74982 47.2797 9.29127 47.6275 8.96041C47.9753 8.61795 48.4448 8.43221 48.9317 8.43801C49.4187 8.4264 49.8882 8.61215 50.236 8.96041C50.5838 9.29127 50.775 9.75563 50.7692 10.2316C50.7808 10.7134 50.5896 11.1835 50.236 11.5144C49.8882 11.851 49.4187 12.0368 48.9317 12.0252C48.4506 12.0368 47.9811 11.851 47.6275 11.5144ZM47.2565 13.662H50.6127V24.2784H47.2565V13.662Z" fill="#1A1818"/>
<path d="M56.6298 29.1674C56.0095 29.0629 55.4067 28.883 54.827 28.6334V26.1781C56.0733 26.7005 57.4123 26.9559 58.7571 26.9269C59.673 27.0139 60.5888 26.7527 61.3192 26.1955C61.8699 25.6093 62.1539 24.814 62.0901 24.0072V23.3455C61.6032 23.775 61.0294 24.0943 60.4091 24.2858C59.7251 24.5006 59.0064 24.6109 58.2876 24.6051C57.2674 24.6225 56.2588 24.3729 55.3603 23.8853C54.514 23.421 53.8126 22.7244 53.3373 21.8828C52.8446 20.9889 52.5896 19.9847 52.607 18.9631C52.5838 17.9299 52.833 16.9084 53.3257 15.9971C53.7837 15.1612 54.4734 14.4705 55.3139 14.0177C56.2066 13.5418 57.2094 13.3038 58.218 13.3212C58.96 13.3096 59.702 13.4257 60.4033 13.6753C61.0699 13.9307 61.6728 14.3138 62.1945 14.8013V13.6521H65.4232V23.5951C65.5217 25.1855 64.9247 26.7469 63.7885 27.8614C62.3568 28.9758 60.5598 29.5098 58.7571 29.3647C58.0557 29.3647 57.337 29.3009 56.6298 29.1674ZM60.9598 21.4591C61.4989 21.105 61.8989 20.5768 62.0959 19.9673V17.9764C61.8757 17.3727 61.4699 16.8561 60.9366 16.4962C60.3917 16.1248 59.7483 15.9332 59.0933 15.9448C58.2818 15.91 57.4877 16.206 56.8964 16.7632C56.3168 17.3379 56.0095 18.1331 56.0443 18.9515C56.0037 19.7816 56.311 20.5942 56.8964 21.1863C57.4819 21.7551 58.276 22.0569 59.0933 22.0279C59.7599 22.0337 60.4091 21.8364 60.9598 21.4591Z" fill="#1A1818"/>
<path d="M68.2867 11.5144C67.9331 11.1835 67.7418 10.7134 67.7534 10.2316C67.7418 9.74982 67.9389 9.29127 68.2867 8.96041C68.6345 8.61795 69.104 8.43221 69.5909 8.43801C70.0779 8.4264 70.5474 8.61215 70.8952 8.96041C71.243 9.29127 71.4343 9.75563 71.4285 10.2316C71.4401 10.7134 71.2488 11.1835 70.8952 11.5144C70.5474 11.851 70.0779 12.0368 69.5909 12.0252C69.104 12.0368 68.6345 11.851 68.2867 11.5144ZM67.9099 13.662H71.2662V24.2784H67.9099V13.662Z" fill="#1A1818"/>
<path d="M75.341 23.583C74.6628 22.7878 74.315 21.7604 74.3787 20.7156V16.0721H72.8311V13.6632H74.3787V10.4766H77.7118V13.6632H80.2101V16.0721H77.7118V20.2745C77.6712 20.7505 77.7929 21.2206 78.0654 21.6153C78.4074 21.9288 78.8653 22.0739 79.3232 22.0216C79.8101 22.0216 80.2854 21.8997 80.7144 21.6676V24.1693C79.8971 24.4885 79.0276 24.6395 78.1523 24.6104C77.1147 24.6859 76.0945 24.3086 75.341 23.583Z" fill="#1A1818"/>
<path d="M82.8014 11.5144C82.4478 11.1835 82.2565 10.7134 82.2681 10.2316C82.2565 9.74982 82.4536 9.29127 82.8014 8.96041C83.1492 8.61795 83.6187 8.43221 84.1056 8.43801C84.5925 8.4264 85.062 8.61215 85.4098 8.96041C85.7576 9.29127 85.9489 9.75563 85.9431 10.2316C85.9547 10.7134 85.7634 11.1835 85.4098 11.5144C85.062 11.851 84.5925 12.0368 84.1056 12.0252C83.6187 12.0368 83.1492 11.851 82.8014 11.5144ZM82.4246 13.662H85.7808V24.2784H82.4246V13.662Z" fill="#1A1818"/>
<path d="M89.4906 23.1409C88.3255 22.0903 87.6995 20.5638 87.7922 18.9908C87.7053 17.4119 88.3313 15.8796 89.5022 14.8173C90.7949 13.7725 92.4237 13.2385 94.0873 13.3256C95.5364 13.2559 96.974 13.5926 98.2434 14.3007V16.9302C97.7449 16.5819 97.1885 16.3265 96.5972 16.1814C95.9538 16.0189 95.2872 15.9376 94.6206 15.9376C93.7337 15.8912 92.8584 16.1582 92.1455 16.6864C91.4904 17.2668 91.1484 18.1201 91.218 18.9908C91.1484 19.8556 91.4904 20.7031 92.1339 21.2777C92.8468 21.8059 93.7163 22.0671 94.5974 22.0207C95.9306 22.0497 97.2406 21.684 98.3768 20.9817V23.5937C97.0609 24.3309 95.5654 24.6791 94.0641 24.6095C92.4063 24.6965 90.7833 24.1741 89.4906 23.1409Z" fill="#1A1818"/>
<path d="M100.226 7.93359H103.559V18.1552L107.425 13.6626H111.291L106.805 18.846L111.836 24.2906H107.97L103.553 19.5135V24.2906H100.22L100.226 7.93359Z" fill="#1A1818"/>
<path d="M115.007 23.1417C113.819 22.1085 113.176 20.5877 113.263 19.0147C113.182 17.4707 113.744 15.9616 114.822 14.8529C116.045 13.7675 117.651 13.2161 119.28 13.3264C120.398 13.2915 121.505 13.5353 122.502 14.0345C123.355 14.4698 124.056 15.1548 124.514 15.9906C124.978 16.8555 125.215 17.8306 125.198 18.8116V20.1698H116.433C116.671 21.5281 117.935 22.2072 120.236 22.2014C120.937 22.2014 121.639 22.1375 122.334 22.0214C122.978 21.9228 123.604 21.7602 124.212 21.5339V23.8847C123.575 24.1401 122.908 24.32 122.224 24.4187C121.418 24.5522 120.607 24.616 119.795 24.616C118.074 24.7147 116.375 24.1923 115.007 23.1417ZM122.033 17.999C122.021 17.3605 121.732 16.7568 121.239 16.3505C120.653 15.9268 119.946 15.7236 119.227 15.7642C118.514 15.7236 117.813 15.9384 117.239 16.3621C116.752 16.7684 116.462 17.3663 116.445 17.999H122.033Z" fill="#1A1818"/>
<path d="M128.67 23.583C127.992 22.7878 127.644 21.7604 127.708 20.7156V16.0721H126.16V13.6632H127.708V10.4766H131.041V13.6632H133.539V16.0721H131.041V20.2745C131 20.7505 131.122 21.2206 131.394 21.6153C131.736 21.9288 132.194 22.0739 132.652 22.0216C133.139 22.0216 133.615 21.8997 134.044 21.6676V24.1693C133.226 24.4885 132.357 24.6395 131.481 24.6104C130.444 24.6859 129.418 24.3086 128.67 23.583Z" fill="#1A1818"/>
<path d="M135.516 23.925C135.272 23.6928 135.145 23.3735 135.151 23.0369C135.145 22.6944 135.284 22.3694 135.527 22.1314C135.759 21.8876 136.078 21.7541 136.414 21.7541C136.756 21.7483 137.081 21.8876 137.318 22.1314C137.562 22.3694 137.701 22.6944 137.695 23.0369C137.701 23.3735 137.568 23.6928 137.318 23.925C137.075 24.1571 136.75 24.2848 136.414 24.279C136.078 24.2906 135.753 24.1629 135.516 23.925Z" fill="#1A1818"/>
<path d="M139.277 13.6641H142.083L144.958 21.0067L147.833 13.6641H150.639L146.262 24.2804H143.654L139.277 13.6641Z" fill="#1A1818"/>
<path d="M152.383 13.6638H155.606V14.9698C156.081 14.43 156.672 14.012 157.339 13.7392C158.011 13.4664 158.724 13.3271 159.449 13.3329C160.643 13.24 161.82 13.6638 162.683 14.4938C163.431 15.3587 163.814 16.4789 163.756 17.6224V24.2801H160.423V17.9997C160.423 16.6299 159.791 15.9449 158.521 15.9449C157.971 15.9449 157.432 16.0842 156.951 16.3512C156.446 16.6415 156.017 17.0594 155.716 17.5586V24.2859H152.383V13.6638Z" fill="#1A1818"/>
<path d="M24.1427 0V12.6421V22.7883C24.1427 22.8115 24.1427 22.8347 24.1427 22.858C24.0905 23.6009 23.9514 24.3323 23.7311 25.0404L23.5862 25.4235L23.5746 25.4642C23.3196 26.0911 22.9718 26.6831 22.5544 27.2171C22.5196 27.2635 22.4791 27.31 22.4443 27.3622C20.2995 30.0033 17.1752 31.6633 13.79 31.971C13.6683 31.971 13.5407 31.971 13.419 31.971H13.2451C13.6393 31.9071 14.0277 31.7968 14.3928 31.6343L14.4624 31.6053C15.2275 31.257 15.871 30.6882 16.3057 29.9684C16.4738 29.6898 16.6071 29.3938 16.7057 29.0803V29.0745C16.7057 29.0687 16.7057 29.0629 16.7057 29.0629C16.752 28.9294 16.781 28.7959 16.81 28.6624C16.81 28.6508 16.81 28.6392 16.81 28.6276V28.6218C16.8274 28.5115 16.839 28.407 16.8506 28.2967C16.8622 28.082 16.8622 27.4319 16.8622 27.4319V27.3738V15.3644V7.42971V0.470161V0H18.9547C18.9605 0.853256 19.6561 1.54399 20.5082 1.54399C21.3603 1.54979 22.0617 0.85906 22.0675 0H24.1427Z" fill="#1A1818"/>
<path d="M14.3175 10.5568C14.3175 11.4159 15.0131 12.1124 15.871 12.1124H15.8884V14.7651C15.2566 14.3878 14.5552 14.144 13.8248 14.0337C13.5466 13.9931 13.2683 13.9757 12.9901 13.9757C12.909 13.9757 12.7409 13.9757 12.7351 13.9757C12.567 13.9757 12.3989 13.9989 12.2366 14.0163C10.7932 14.2079 9.47739 14.945 8.55574 16.0769C8.52096 16.1175 8.48618 16.164 8.4514 16.2046C8.38764 16.2917 8.31808 16.3787 8.26011 16.4716C8.23113 16.518 8.19635 16.5645 8.16737 16.6167C8.13838 16.6689 8.1094 16.7096 8.08042 16.7618C8.05143 16.8141 8.02245 16.8547 7.99927 16.9069C7.97028 16.9534 7.9413 17.0056 7.91811 17.052C7.89493 17.0927 7.87754 17.1275 7.86015 17.1681C7.84276 17.2088 7.82537 17.2436 7.80798 17.2842C7.79059 17.3248 7.779 17.3423 7.7674 17.3713L7.73842 17.4409C7.71523 17.4932 7.69205 17.5512 7.66886 17.6035C7.64568 17.6615 7.63988 17.6789 7.62829 17.7196C7.61669 17.7602 7.5993 17.8066 7.58191 17.8531C7.56452 17.8937 7.55293 17.9401 7.54134 17.9866C7.52974 18.033 7.52395 18.0562 7.51235 18.0852C7.51235 18.091 7.51235 18.0968 7.51235 18.1026C7.50076 18.1375 7.49496 18.1665 7.48337 18.2013C7.47758 18.2362 7.47178 18.2536 7.46598 18.2768C7.46019 18.2884 7.46019 18.2942 7.46019 18.3058C7.46019 18.329 7.44859 18.3464 7.44279 18.3697C7.437 18.3871 7.42541 18.4451 7.41961 18.4857C7.41381 18.5206 7.40802 18.5496 7.40222 18.5844C7.39642 18.6134 7.39063 18.6425 7.38483 18.6715C7.38483 18.7005 7.37324 18.7295 7.36744 18.7586C7.36164 18.7876 7.35585 18.834 7.35005 18.8746C7.34425 18.9153 7.34425 18.9269 7.33846 18.9559C7.33846 18.9849 7.33266 19.0198 7.32686 19.0488C7.32107 19.0778 7.32686 19.1126 7.31527 19.1475L7.30947 19.2345C7.30947 19.2345 7.30947 19.2403 7.30947 19.2461C7.30947 19.2751 7.30947 19.31 7.30947 19.339C7.30947 19.339 7.30947 19.3448 7.30947 19.3506C7.30947 19.3854 7.30947 19.4261 7.30947 19.4609C7.30947 19.4667 7.30947 19.4725 7.30947 19.4783C7.30947 19.548 7.30947 19.6234 7.30947 19.6815C7.30947 22.8391 9.86576 25.3989 13.0191 25.3989C13.6857 25.3989 14.3407 25.2828 14.9667 25.0564C15.0479 25.0274 15.129 24.9983 15.2044 24.9635C15.4421 24.8648 15.6681 24.7488 15.8942 24.6211V27.7613C15.8942 27.8135 15.8942 27.8658 15.8942 27.918C15.8942 28.5971 15.7261 29.2646 15.4015 29.8625C15.3783 29.9089 15.3493 29.9612 15.3203 30.0076C15.0421 30.4778 14.6711 30.8841 14.2364 31.2091L14.1031 31.302C13.7379 31.5516 13.3379 31.7373 12.9148 31.8534C12.6191 31.9347 12.3119 31.9869 11.9989 31.9985C7.15876 31.7431 2.88669 28.7422 1.00281 24.2728C0.973824 24.2031 0.944841 24.1335 0.915858 24.0638C0.886875 23.9942 0.857892 23.9187 0.828909 23.8491C0.79413 23.7504 0.759351 23.6575 0.724571 23.5588L0.689792 23.4544C0.672402 23.4079 0.660809 23.3615 0.643419 23.3092C0.631826 23.257 0.614436 23.2164 0.597047 23.1641L0.556471 23.019C0.18549 21.8291 0 20.5812 0 19.3274C0 12.3272 5.66325 6.65625 12.6539 6.65625C13.7495 6.65625 14.8392 6.79556 15.9 7.07417V8.97223H15.8826C15.0247 8.96643 14.3233 9.65716 14.3175 10.5162C14.3175 10.5336 14.3175 10.5452 14.3175 10.5568Z" fill="#1A1818"/>
</svg>
