<svg width="24" height="25" viewBox="0 0 24 25" fill="none" xmlns="http://www.w3.org/2000/svg">
<path fill-rule="evenodd" clip-rule="evenodd" d="M7 3.37891C4.79086 3.37891 3 5.16977 3 7.37891V17.3789C3 19.588 4.79086 21.3789 7 21.3789H17C19.2091 21.3789 21 19.588 21 17.3789V7.37891C21 5.16977 19.2091 3.37891 17 3.37891H7ZM1 7.37891C1 4.0652 3.68629 1.37891 7 1.37891H17C20.3137 1.37891 23 4.0652 23 7.37891V17.3789C23 20.6926 20.3137 23.3789 17 23.3789H7C3.68629 23.3789 1 20.6926 1 17.3789V7.37891Z" fill="white"/>
<path fill-rule="evenodd" clip-rule="evenodd" d="M12.483 9.36839C11.8588 9.27583 11.2214 9.38245 10.6613 9.67307C10.1012 9.9637 9.64697 10.4235 9.36327 10.9872C9.07957 11.5508 8.98083 12.1896 9.08108 12.8126C9.18132 13.4355 9.47546 14.0111 9.92165 14.4573C10.3678 14.9035 10.9434 15.1976 11.5664 15.2978C12.1894 15.3981 12.8281 15.2993 13.3917 15.0156C13.9554 14.732 14.4152 14.2778 14.7058 13.7177C14.9965 13.1576 15.1031 12.5201 15.0105 11.8959C14.9161 11.2592 14.6194 10.6698 14.1643 10.2146C13.7092 9.75949 13.1197 9.46281 12.483 9.36839ZM9.74012 7.89783C10.6736 7.41345 11.7361 7.23576 12.7764 7.39003C13.8375 7.54738 14.82 8.04185 15.5785 8.80041C16.3371 9.55896 16.8315 10.5414 16.9889 11.6025C17.1432 12.6428 16.9655 13.7053 16.4811 14.6388C15.9967 15.5723 15.2303 16.3293 14.2909 16.8021C13.3515 17.2749 12.287 17.4395 11.2486 17.2724C10.2103 17.1054 9.25109 16.6151 8.50744 15.8715C7.76379 15.1278 7.27356 14.1686 7.10648 13.1303C6.9394 12.092 7.10397 11.0274 7.5768 10.088C8.04963 9.14859 8.80662 8.3822 9.74012 7.89783Z" fill="white"/>
</svg>
