<svg width="16" height="16" viewBox="0 0 16 16" fill="none" xmlns="http://www.w3.org/2000/svg">
<path d="M9.89062 1.78523C9.89062 1.64308 10.0063 1.5274 10.1484 1.5274H11.638C11.7802 1.5274 11.8958 1.64308 11.8958 1.78523V3.32119H12.7552V1.78523C12.7552 1.16916 12.254 0.667969 11.638 0.667969H10.1484C9.53241 0.667969 9.03125 1.16916 9.03125 1.78523V3.32119H9.89062V1.78523Z" fill="#26B0EE"/>
<path d="M5.89022 14.4764C5.70247 14.1846 5.59408 13.8393 5.59408 13.4737V7.03125H1.6696C1.11676 7.03125 0.666992 7.48105 0.666992 8.03392V13.4737C0.666992 13.9779 1.04114 14.3963 1.52637 14.466V14.906C1.52637 15.1433 1.71875 15.3357 1.95605 15.3357C2.19336 15.3357 2.38574 15.1433 2.38574 14.906V14.4764H5.89022V14.4764ZM2.38574 8.60688C2.38574 8.36956 2.57813 8.17716 2.81543 8.17716C3.05273 8.17716 3.24512 8.36956 3.24512 8.60688V12.9008C3.24512 13.1381 3.05273 13.3305 2.81543 13.3305C2.57813 13.3305 2.38574 13.1381 2.38574 12.9008V8.60688Z" fill="#26B0EE"/>
<path d="M4.67773 5.49617C4.67773 5.35402 4.79341 5.23834 4.93555 5.23834H5.5944V5.18434C5.5944 4.896 5.66029 4.62279 5.77779 4.37891H4.93555C4.31952 4.37891 3.81836 4.8801 3.81836 5.49617V6.17269H4.67773V5.49617Z" fill="#26B0EE"/>
<path d="M14.3307 4.17969H7.45573C6.90289 4.17969 6.45312 4.62949 6.45312 5.18236V13.4726C6.45312 13.9768 6.82727 14.3952 7.3125 14.4649V14.9049C7.3125 15.1422 7.50489 15.3346 7.74219 15.3346C7.97949 15.3346 8.17187 15.1422 8.17187 14.9049V14.4753H13.6146V14.9049C13.6146 15.1422 13.807 15.3346 14.0443 15.3346C14.2816 15.3346 14.474 15.1422 14.474 14.9049V14.4649C14.9592 14.3952 15.3333 13.9768 15.3333 13.4726V5.18236C15.3333 4.62946 14.8836 4.17969 14.3307 4.17969ZM9.03125 12.8997C9.03125 13.137 8.83886 13.3294 8.60156 13.3294C8.36426 13.3294 8.17187 13.137 8.17187 12.8997V5.75532C8.17187 5.518 8.36426 5.3256 8.60156 5.3256C8.83886 5.3256 9.03125 5.518 9.03125 5.75532V12.8997ZM13.1849 13.3294C12.9476 13.3294 12.7552 13.137 12.7552 12.8997V5.75532C12.7552 5.518 12.9476 5.3256 13.1849 5.3256C13.4222 5.3256 13.6146 5.518 13.6146 5.75532V12.8997C13.6146 13.137 13.4222 13.3294 13.1849 13.3294Z" fill="#26B0EE"/>
</svg>
