<svg width="12" height="15" viewBox="0 0 12 15" fill="none" xmlns="http://www.w3.org/2000/svg">
<path d="M11.0417 0C11.1927 6.36908e-06 11.3386 0.0547022 11.4524 0.153972C11.5663 0.253243 11.6403 0.390372 11.6608 0.54L11.6667 0.625V13.9583C11.6666 14.1167 11.6065 14.2691 11.4984 14.3848C11.3903 14.5005 11.2423 14.5709 11.0843 14.5817C10.9263 14.5925 10.7701 14.5429 10.6473 14.443C10.5244 14.343 10.4441 14.2002 10.4225 14.0433L10.4167 13.9583V9.79167H8.54167C8.39064 9.79166 8.24472 9.73696 8.13089 9.63769C8.01707 9.53842 7.94304 9.40129 7.9225 9.25167L7.91667 9.16667V3.125C7.91667 2.2962 8.24591 1.50134 8.83196 0.915291C9.41801 0.32924 10.2129 0 11.0417 0ZM6.04167 0C6.1927 6.36908e-06 6.33862 0.0547022 6.45244 0.153972C6.56627 0.253243 6.64029 0.390372 6.66083 0.54L6.66667 0.625V3.95833C6.66667 5.58583 5.5 6.94 3.95833 7.23333V13.9583C3.95829 14.1167 3.89813 14.2691 3.79002 14.3848C3.68192 14.5005 3.53392 14.5709 3.37593 14.5817C3.21795 14.5925 3.06176 14.5429 2.93892 14.443C2.81608 14.343 2.73575 14.2002 2.71417 14.0433L2.70833 13.9583V7.23333C1.97564 7.09325 1.31107 6.71156 0.820853 6.14928C0.330638 5.58701 0.0430864 4.87662 0.00416676 4.13167L0 3.95833V0.625C4.85355e-05 0.466647 0.0602036 0.314216 0.16831 0.198507C0.276417 0.0827979 0.424416 0.0124384 0.5824 0.00164509C0.740385 -0.00914824 0.896577 0.0404294 1.01942 0.14036C1.14226 0.240291 1.22258 0.383125 1.24417 0.54L1.25 0.625V3.95833C1.25 4.89167 1.86333 5.68083 2.70833 5.94667V0.625C2.70838 0.466647 2.76854 0.314216 2.87664 0.198507C2.98475 0.0827979 3.13275 0.0124384 3.29073 0.00164509C3.44872 -0.00914824 3.60491 0.0404294 3.72775 0.14036C3.85059 0.240291 3.93092 0.383125 3.9525 0.54L3.95833 0.625V5.94583C4.356 5.82051 4.70695 5.57883 4.96588 5.25203C5.2248 4.92522 5.37979 4.52829 5.41083 4.1125L5.41667 3.95833V0.625C5.41667 0.45924 5.48252 0.300268 5.59973 0.183058C5.71694 0.0658479 5.87591 0 6.04167 0ZM10.4167 8.54167V1.35667C10.0741 1.47791 9.77409 1.696 9.55309 1.98446C9.33208 2.27292 9.19958 2.61935 9.17167 2.98167L9.16667 3.125V8.54167H10.4167V1.35667V8.54167Z" fill="#717981"/>
</svg>
