<svg width="12" height="16" viewBox="0 0 12 16" fill="none" xmlns="http://www.w3.org/2000/svg">
<path d="M2.5 0C2.36739 0 2.24021 0.0526785 2.14645 0.146447C2.05268 0.240215 2 0.367392 2 0.5C2 0.632608 2.05268 0.759785 2.14645 0.853553C2.24021 0.947321 2.36739 1 2.5 1H3V2H2.5C1.83696 2 1.20107 2.26339 0.732233 2.73223C0.263392 3.20107 5.21142e-08 3.83696 5.21142e-08 4.5V12.5C-0.000117575 13.0763 0.198892 13.635 0.563347 14.0815C0.927802 14.5279 1.43532 14.8347 2 14.95V15.5C2 15.6326 2.05268 15.7598 2.14645 15.8536C2.24021 15.9473 2.36739 16 2.5 16C2.63261 16 2.75979 15.9473 2.85355 15.8536C2.94732 15.7598 3 15.6326 3 15.5V15H9V15.5C9 15.6326 9.05268 15.7598 9.14645 15.8536C9.24021 15.9473 9.36739 16 9.5 16C9.63261 16 9.75979 15.9473 9.85355 15.8536C9.94732 15.7598 10 15.6326 10 15.5V14.95C10.5647 14.8347 11.0722 14.5279 11.4367 14.0815C11.8011 13.635 12.0001 13.0763 12 12.5V4.5C12 3.83696 11.7366 3.20107 11.2678 2.73223C10.7989 2.26339 10.163 2 9.5 2H9V1H9.5C9.63261 1 9.75979 0.947321 9.85355 0.853553C9.94732 0.759785 10 0.632608 10 0.5C10 0.367392 9.94732 0.240215 9.85355 0.146447C9.75979 0.0526785 9.63261 0 9.5 0H2.5ZM8 1V2H4V1H8ZM2.5 3H9.5C9.89782 3 10.2794 3.15804 10.5607 3.43934C10.842 3.72064 11 4.10218 11 4.5V12.5C11 12.8978 10.842 13.2794 10.5607 13.5607C10.2794 13.842 9.89782 14 9.5 14H2.5C2.10218 14 1.72064 13.842 1.43934 13.5607C1.15804 13.2794 1 12.8978 1 12.5V4.5C1 4.10218 1.15804 3.72064 1.43934 3.43934C1.72064 3.15804 2.10218 3 2.5 3ZM2.5 6.5C2.5 6.36739 2.55268 6.24021 2.64645 6.14645C2.74021 6.05268 2.86739 6 3 6H9C9.13261 6 9.25979 6.05268 9.35355 6.14645C9.44732 6.24021 9.5 6.36739 9.5 6.5C9.5 6.63261 9.44732 6.75979 9.35355 6.85355C9.25979 6.94732 9.13261 7 9 7H3C2.86739 7 2.74021 6.94732 2.64645 6.85355C2.55268 6.75979 2.5 6.63261 2.5 6.5Z" fill="#717981"/>
</svg>
