<svg width="20" height="16" viewBox="0 0 20 16" fill="none" xmlns="http://www.w3.org/2000/svg">
<path d="M15.9267 6.75C15.7938 6.75 15.3489 6.75391 15.2235 6.76172L12.6884 6.82812C12.6752 6.82893 12.6621 6.82608 12.6504 6.81987C12.6388 6.81366 12.629 6.80435 12.6224 6.79297L7.56065 0.639062C7.52994 0.598421 7.49078 0.564936 7.44586 0.540925C7.40094 0.516914 7.35134 0.50295 7.30049 0.5H6.2501L9.10166 6.78906C9.10846 6.80346 9.1114 6.81938 9.11019 6.83525C9.10898 6.85113 9.10367 6.86642 9.09476 6.87962C9.08586 6.89281 9.07367 6.90347 9.0594 6.91054C9.04514 6.9176 9.02928 6.92084 9.01338 6.91992L4.25987 6.99023C4.2104 6.99173 4.16128 6.98155 4.11648 6.96051C4.07169 6.93947 4.03249 6.90817 4.00205 6.86914L2.55674 5.11133C2.43955 4.95898 2.22002 4.87695 2.02901 4.87695H1.29229C1.2419 4.87695 1.24932 4.92422 1.26299 4.97187L2.03799 7.76172C2.09657 7.91113 2.09657 8.07715 2.03799 8.22656L1.26221 11.0078C1.23916 11.084 1.2419 11.125 1.33135 11.125H2.03135C2.34932 11.125 2.39268 11.0836 2.55518 10.8789L4.02783 9.09375C4.05854 9.05502 4.09779 9.02394 4.14252 9.00293C4.18725 8.98192 4.23624 8.97156 4.28565 8.97266L8.99971 9.07813C9.01687 9.07852 9.03368 9.08309 9.04868 9.09145C9.06367 9.09981 9.0764 9.11171 9.08575 9.1261C9.09511 9.1405 9.1008 9.15696 9.10235 9.17406C9.1039 9.19116 9.10125 9.20838 9.09463 9.22422L6.2501 15.5H7.29072C7.34147 15.497 7.39098 15.4831 7.43583 15.4592C7.48067 15.4352 7.51979 15.4019 7.55049 15.3613L12.6228 9.21094C12.638 9.1875 12.7009 9.17578 12.7278 9.17578L15.2239 9.24219C15.3528 9.25 15.7938 9.25391 15.9271 9.25391C17.6563 9.25391 18.7501 8.77852 18.7501 8C18.7501 7.22148 17.661 6.75 15.9267 6.75Z" stroke="#717981" stroke-linecap="round" stroke-linejoin="round"/>
</svg>
