<svg width="12" height="12" viewBox="0 0 12 12" fill="none" xmlns="http://www.w3.org/2000/svg">
<circle cx="6" cy="6" r="5" fill="#717981"/>
<path fill-rule="evenodd" clip-rule="evenodd" d="M8.5732 3.85348C8.76847 4.04874 8.76847 4.36532 8.5732 4.56058L4.62346 8.51033C4.42819 8.70559 4.11161 8.70559 3.91635 8.51033C3.72109 8.31507 3.72109 7.99849 3.91635 7.80323L7.8661 3.85348C8.06136 3.65822 8.37794 3.65822 8.5732 3.85348Z" fill="white"/>
<path fill-rule="evenodd" clip-rule="evenodd" d="M8.44828 8.50973C8.25302 8.70499 7.93644 8.70499 7.74117 8.50973L3.79143 4.55998C3.59616 4.36472 3.59616 4.04814 3.79143 3.85287C3.98669 3.65761 4.30327 3.65761 4.49853 3.85287L8.44828 7.80262C8.64354 7.99788 8.64354 8.31447 8.44828 8.50973Z" fill="white"/>
</svg>
